<svg width="1859" height="300" viewBox="0 0 1859 300" fill="none" xmlns="http://www.w3.org/2000/svg">
<g clip-path="url(#clip0_1_2)">
<path d="M0 60C0 26.8629 26.8629 0 60 0H1799C1832.14 0 1859 26.8629 1859 60V240C1859 273.137 1832.14 300 1799 300H60C26.863 300 0 273.137 0 240V60Z" fill="#050505"/>
<path d="M320 264.951H291.254C291.254 264.951 291.254 215.363 291.254 186.966C265.009 213.279 246.08 232.255 228.688 249.693C238.411 259.441 235.875 256.898 243.907 264.951C231.02 265.062 175 264.951 175 264.951C175 264.951 254.475 185.695 320 120C320 139.497 320 200.737 320 264.951Z" fill="#ECF4F7"/>
<path d="M464.188 142V62.536H433.168V46.96H515.536V62.536H484.516V142H464.188ZM525.288 142V46.96H545.616V142H525.288ZM586.8 142V46.96H607.128V142H586.8ZM534.792 84.712H596.04V100.288H534.792V84.712ZM620.291 142V46.96H640.619V142H620.291ZM629.795 142V126.424H691.043V142H629.795ZM629.795 101.08V85.768H686.423V101.08H629.795ZM629.795 62.536V46.96H689.459V62.536H629.795ZM740.465 142V126.16H764.489C771.353 126.16 777.161 124.796 781.913 122.068C786.753 119.252 790.405 115.424 792.869 110.584C795.421 105.744 796.697 100.2 796.697 93.952C796.697 87.792 795.465 82.38 793.001 77.716C790.537 73.052 786.885 69.4 782.045 66.76C777.293 64.12 771.441 62.8 764.489 62.8H740.861V46.96H764.489C775.137 46.96 784.421 48.896 792.341 52.768C800.261 56.552 806.377 62.008 810.689 69.136C815.089 76.176 817.289 84.536 817.289 94.216C817.289 103.896 815.089 112.344 810.689 119.56C806.289 126.688 800.129 132.232 792.209 136.192C784.377 140.064 775.181 142 764.621 142H740.465ZM728.057 142V46.96H748.385V142H728.057ZM817.824 142L851.88 46.96H869.304L838.02 142H817.824ZM887.52 142L856.368 46.96H874.584L908.64 142H887.52ZM835.776 105.172H889.104V121.012H835.776V105.172ZM918.452 142V46.96H938.78V142H918.452ZM951.967 142V46.96H972.295V142H951.967ZM961.471 142V126.424H1017.97V142H961.471ZM1041.23 142V103.588L1005.86 46.96H1030.28L1058.26 97.252H1046.78L1074.63 46.96H1096.94L1061.56 103.588V142H1041.23ZM1130.12 142V46.96H1175.26C1182.3 46.96 1188.33 48.192 1193.34 50.656C1198.45 53.12 1202.36 56.552 1205.09 60.952C1207.91 65.352 1209.32 70.5 1209.32 76.396C1209.32 82.292 1207.91 87.484 1205.09 91.972C1202.28 96.46 1198.32 99.98 1193.21 102.532C1188.2 104.996 1182.21 106.228 1175.26 106.228H1146.22V90.652H1174.2C1178.87 90.652 1182.48 89.376 1185.03 86.824C1187.67 84.184 1188.99 80.752 1188.99 76.528C1188.99 72.304 1187.67 68.916 1185.03 66.364C1182.48 63.812 1178.87 62.536 1174.2 62.536H1150.44V142H1130.12ZM1218.28 142V46.96H1260.78C1267.64 46.96 1273.63 48.148 1278.73 50.524C1283.84 52.812 1287.8 56.068 1290.61 60.292C1293.43 64.516 1294.84 69.444 1294.84 75.076C1294.84 80.62 1293.43 85.504 1290.61 89.728C1287.8 93.864 1283.84 97.12 1278.73 99.496C1273.63 101.784 1267.64 102.928 1260.78 102.928H1234.38V88.012H1260.25C1265.09 88.012 1268.79 86.912 1271.34 84.712C1273.98 82.424 1275.3 79.256 1275.3 75.208C1275.3 71.072 1274.02 67.948 1271.47 65.836C1268.92 63.636 1265.18 62.536 1260.25 62.536H1238.6V142H1218.28ZM1271.87 142L1233.72 92.632H1255.24L1299.32 142H1271.87ZM1351.5 143.32C1344.46 143.32 1337.94 142.132 1331.96 139.756C1326.06 137.38 1320.92 134.036 1316.52 129.724C1312.2 125.324 1308.82 120.132 1306.35 114.148C1303.98 108.076 1302.79 101.388 1302.79 94.084C1302.79 84.404 1304.86 75.956 1308.99 68.74C1313.13 61.436 1318.85 55.76 1326.15 51.712C1333.54 47.664 1341.95 45.64 1351.36 45.64C1360.96 45.64 1369.4 47.664 1376.71 51.712C1384.01 55.76 1389.73 61.436 1393.87 68.74C1398.09 76.044 1400.2 84.536 1400.2 94.216C1400.2 101.432 1398.97 108.076 1396.51 114.148C1394.13 120.132 1390.74 125.324 1386.34 129.724C1382.03 134.036 1376.88 137.38 1370.9 139.756C1365 142.132 1358.54 143.32 1351.5 143.32ZM1351.36 127.216C1356.91 127.216 1361.79 125.808 1366.02 122.992C1370.24 120.176 1373.54 116.304 1375.92 111.376C1378.38 106.36 1379.61 100.552 1379.61 93.952C1379.61 87.44 1378.42 81.764 1376.05 76.924C1373.67 72.084 1370.37 68.344 1366.15 65.704C1361.92 63.064 1357 61.744 1351.36 61.744C1345.82 61.744 1340.94 63.064 1336.71 65.704C1332.49 68.344 1329.19 72.084 1326.81 76.924C1324.52 81.676 1323.38 87.352 1323.38 93.952C1323.38 100.64 1324.57 106.492 1326.94 111.508C1329.32 116.436 1332.62 120.308 1336.84 123.124C1341.07 125.852 1345.91 127.216 1351.36 127.216ZM1410.74 142V46.96H1431.07V142H1410.74ZM1420.25 105.172V89.596H1474.76V105.172H1420.25ZM1420.25 62.536V46.96H1477.8V62.536H1420.25ZM1488.6 142V46.96H1508.93V142H1488.6ZM1522.12 142V46.96H1542.45V142H1522.12ZM1531.62 142V126.424H1588.12V142H1531.62ZM1599.98 142V46.96H1620.31V142H1599.98ZM1609.48 142V126.424H1670.73V142H1609.48ZM1609.48 101.08V85.768H1666.11V101.08H1609.48ZM1609.48 62.536V46.96H1669.15V62.536H1609.48ZM1681.18 142V46.96H1723.68C1730.55 46.96 1736.53 48.148 1741.63 50.524C1746.74 52.812 1750.7 56.068 1753.51 60.292C1756.33 64.516 1757.74 69.444 1757.74 75.076C1757.74 80.62 1756.33 85.504 1753.51 89.728C1750.7 93.864 1746.74 97.12 1741.63 99.496C1736.53 101.784 1730.55 102.928 1723.68 102.928H1697.28V88.012H1723.15C1727.99 88.012 1731.69 86.912 1734.24 84.712C1736.88 82.424 1738.2 79.256 1738.2 75.208C1738.2 71.072 1736.93 67.948 1734.37 65.836C1731.82 63.636 1728.08 62.536 1723.15 62.536H1701.51V142H1681.18ZM1734.77 142L1696.62 92.632H1718.14L1762.23 142H1734.77Z" fill="white"/>
<path d="M432.978 258.25L456.828 193.45H466.908L444.498 258.25H432.978ZM481.848 258.25L459.528 193.45H470.148L493.908 258.25H481.848ZM445.308 232.78H480.768V242.14H445.308V232.78ZM502.494 258.25V193.45H513.834V258.25H502.494ZM525.873 258.25V212.35H537.213V258.25H525.873ZM525.333 204.79V192.28H537.663V204.79H525.333ZM569.06 277.6C563 277.6 558.02 276.28 554.12 273.64C550.28 271 548 267.43 547.28 262.93H558.08C558.62 264.49 559.79 265.69 561.59 266.53C563.45 267.43 565.85 267.88 568.79 267.88C573.05 267.88 576.2 266.92 578.24 265C580.28 263.14 581.3 260.29 581.3 256.45V246.55L582.11 246.73C581.39 250.09 579.56 252.79 576.62 254.83C573.68 256.81 570.08 257.8 565.82 257.8C561.74 257.8 558.17 256.84 555.11 254.92C552.11 253 549.77 250.33 548.09 246.91C546.41 243.43 545.57 239.38 545.57 234.76C545.57 230.08 546.44 226 548.18 222.52C549.92 219.04 552.35 216.34 555.47 214.42C558.65 212.44 562.34 211.45 566.54 211.45C570.86 211.45 574.4 212.5 577.16 214.6C579.98 216.64 581.72 219.49 582.38 223.15L581.66 223.24V212.35H592.73V256.36C592.73 262.9 590.6 268.06 586.34 271.84C582.14 275.68 576.38 277.6 569.06 277.6ZM569.51 248.8C573.17 248.8 576.08 247.57 578.24 245.11C580.46 242.59 581.57 239.08 581.57 234.58C581.57 230.08 580.46 226.6 578.24 224.14C576.02 221.68 573.08 220.45 569.42 220.45C565.82 220.45 562.91 221.71 560.69 224.23C558.47 226.69 557.36 230.17 557.36 234.67C557.36 239.17 558.47 242.65 560.69 245.11C562.91 247.57 565.85 248.8 569.51 248.8ZM604.798 258.25V212.35H615.868V223.15H616.138V258.25H604.798ZM637.018 258.25V229.27C637.018 226.45 636.298 224.32 634.858 222.88C633.418 221.44 631.318 220.72 628.558 220.72C626.158 220.72 623.998 221.26 622.078 222.34C620.218 223.42 618.748 224.92 617.668 226.84C616.648 228.76 616.138 230.98 616.138 233.5L614.968 222.52C616.528 219.16 618.808 216.49 621.808 214.51C624.808 212.47 628.408 211.45 632.608 211.45C637.588 211.45 641.458 212.86 644.218 215.68C647.038 218.5 648.448 222.25 648.448 226.93V258.25H637.018ZM659.554 258.25V212.35H670.894V258.25H659.554ZM659.014 204.79V192.28H671.344V204.79H659.014ZM682.933 258.25V212.35H694.003V223.15H694.273V258.25H682.933ZM715.153 258.25V229.27C715.153 226.45 714.433 224.32 712.993 222.88C711.553 221.44 709.453 220.72 706.693 220.72C704.293 220.72 702.133 221.26 700.213 222.34C698.353 223.42 696.883 224.92 695.803 226.84C694.783 228.76 694.273 230.98 694.273 233.5L693.103 222.52C694.663 219.16 696.943 216.49 699.943 214.51C702.943 212.47 706.543 211.45 710.743 211.45C715.723 211.45 719.593 212.86 722.353 215.68C725.173 218.5 726.583 222.25 726.583 226.93V258.25H715.153ZM758.113 277.6C752.053 277.6 747.073 276.28 743.173 273.64C739.333 271 737.053 267.43 736.333 262.93H747.133C747.673 264.49 748.843 265.69 750.643 266.53C752.503 267.43 754.903 267.88 757.843 267.88C762.103 267.88 765.253 266.92 767.293 265C769.333 263.14 770.353 260.29 770.353 256.45V246.55L771.163 246.73C770.443 250.09 768.613 252.79 765.673 254.83C762.733 256.81 759.133 257.8 754.873 257.8C750.793 257.8 747.223 256.84 744.163 254.92C741.163 253 738.823 250.33 737.143 246.91C735.463 243.43 734.623 239.38 734.623 234.76C734.623 230.08 735.493 226 737.233 222.52C738.973 219.04 741.403 216.34 744.523 214.42C747.703 212.44 751.393 211.45 755.593 211.45C759.913 211.45 763.453 212.5 766.213 214.6C769.033 216.64 770.773 219.49 771.433 223.15L770.713 223.24V212.35H781.783V256.36C781.783 262.9 779.653 268.06 775.393 271.84C771.193 275.68 765.433 277.6 758.113 277.6ZM758.563 248.8C762.223 248.8 765.133 247.57 767.293 245.11C769.513 242.59 770.623 239.08 770.623 234.58C770.623 230.08 769.513 226.6 767.293 224.14C765.073 221.68 762.133 220.45 758.473 220.45C754.873 220.45 751.963 221.71 749.743 224.23C747.523 226.69 746.413 230.17 746.413 234.67C746.413 239.17 747.523 242.65 749.743 245.11C751.963 247.57 754.903 248.8 758.563 248.8ZM831.863 259.15C826.223 259.15 822.053 257.83 819.353 255.19C816.713 252.49 815.393 248.47 815.393 243.13V201.91L826.823 197.68V243.4C826.823 245.62 827.423 247.27 828.623 248.35C829.823 249.43 831.713 249.97 834.293 249.97C835.313 249.97 836.213 249.91 836.993 249.79C837.833 249.61 838.613 249.4 839.333 249.16V257.98C838.613 258.34 837.593 258.61 836.273 258.79C834.953 259.03 833.483 259.15 831.863 259.15ZM806.573 221.26V212.35H839.333V221.26H806.573ZM847.816 258.25V193.45H859.156V258.25H847.816ZM880.036 258.25V229.27C880.036 226.45 879.316 224.32 877.876 222.88C876.436 221.44 874.336 220.72 871.576 220.72C869.176 220.72 867.016 221.26 865.096 222.34C863.236 223.42 861.766 224.92 860.686 226.84C859.666 228.76 859.156 230.98 859.156 233.5L857.986 222.52C859.546 219.16 861.826 216.49 864.826 214.51C867.826 212.47 871.426 211.45 875.626 211.45C880.606 211.45 884.476 212.86 887.236 215.68C890.056 218.5 891.466 222.25 891.466 226.93V258.25H880.036ZM923.533 259.15C918.673 259.15 914.413 258.13 910.753 256.09C907.153 254.05 904.333 251.23 902.293 247.63C900.313 244.03 899.323 239.89 899.323 235.21C899.323 230.53 900.313 226.42 902.293 222.88C904.333 219.28 907.153 216.49 910.753 214.51C914.353 212.47 918.553 211.45 923.353 211.45C927.913 211.45 931.873 212.41 935.233 214.33C938.593 216.19 941.203 218.83 943.063 222.25C944.923 225.67 945.853 229.66 945.853 234.22C945.853 235.06 945.823 235.84 945.763 236.56C945.703 237.28 945.613 238 945.493 238.72H906.343V230.8H936.763L934.423 232.96C934.423 228.64 933.433 225.4 931.453 223.24C929.473 221.08 926.713 220 923.173 220C919.333 220 916.273 221.32 913.993 223.96C911.773 226.6 910.663 230.41 910.663 235.39C910.663 240.31 911.773 244.09 913.993 246.73C916.273 249.31 919.483 250.6 923.623 250.6C926.023 250.6 928.123 250.15 929.923 249.25C931.723 248.35 933.043 246.97 933.883 245.11H944.593C943.093 249.43 940.543 252.85 936.943 255.37C933.403 257.89 928.933 259.15 923.533 259.15ZM971.292 258.25V193.45H985.782L1017.37 249.79L1014.04 250.6V193.45H1025.38V258.25H1010.89L979.302 201.91L982.632 201.1V258.25H971.292ZM1057.84 259.15C1052.98 259.15 1048.69 258.13 1044.97 256.09C1041.31 254.05 1038.46 251.23 1036.42 247.63C1034.38 243.97 1033.36 239.8 1033.36 235.12C1033.36 230.44 1034.38 226.33 1036.42 222.79C1038.46 219.25 1041.31 216.49 1044.97 214.51C1048.69 212.47 1052.98 211.45 1057.84 211.45C1062.76 211.45 1067.05 212.47 1070.71 214.51C1074.37 216.49 1077.22 219.25 1079.26 222.79C1081.3 226.33 1082.32 230.44 1082.32 235.12C1082.32 239.8 1081.27 243.97 1079.17 247.63C1077.13 251.23 1074.28 254.05 1070.62 256.09C1066.96 258.13 1062.7 259.15 1057.84 259.15ZM1057.84 250.06C1060.24 250.06 1062.4 249.46 1064.32 248.26C1066.24 247 1067.74 245.26 1068.82 243.04C1069.9 240.76 1070.44 238.09 1070.44 235.03C1070.44 230.53 1069.24 226.99 1066.84 224.41C1064.5 221.83 1061.5 220.54 1057.84 220.54C1054.18 220.54 1051.15 221.83 1048.75 224.41C1046.35 226.99 1045.15 230.53 1045.15 235.03C1045.15 238.09 1045.69 240.76 1046.77 243.04C1047.91 245.26 1049.41 247 1051.27 248.26C1053.19 249.46 1055.38 250.06 1057.84 250.06ZM1098.97 258.25L1084.93 212.35H1096.81L1105.09 246.82H1104.28L1114.45 212.35H1124.8L1135.15 246.82H1134.25L1142.44 212.35H1154.05L1140.01 258.25H1129.39L1119.04 224.14H1119.94L1109.59 258.25H1098.97ZM1188.35 258.25L1174.31 212.35H1186.19L1194.47 246.82H1193.66L1203.83 212.35H1214.18L1224.53 246.82H1223.63L1231.82 212.35H1243.43L1229.39 258.25H1218.77L1208.42 224.14H1209.32L1198.97 258.25H1188.35ZM1250.18 258.25V212.35H1261.52V258.25H1250.18ZM1249.64 204.79V192.28H1261.97V204.79H1249.64ZM1293.64 259.15C1288 259.15 1283.83 257.83 1281.13 255.19C1278.49 252.49 1277.17 248.47 1277.17 243.13V201.91L1288.6 197.68V243.4C1288.6 245.62 1289.2 247.27 1290.4 248.35C1291.6 249.43 1293.49 249.97 1296.07 249.97C1297.09 249.97 1297.99 249.91 1298.77 249.79C1299.61 249.61 1300.39 249.4 1301.11 249.16V257.98C1300.39 258.34 1299.37 258.61 1298.05 258.79C1296.73 259.03 1295.26 259.15 1293.64 259.15ZM1268.35 221.26V212.35H1301.11V221.26H1268.35ZM1309.59 258.25V193.45H1320.93V258.25H1309.59ZM1341.81 258.25V229.27C1341.81 226.45 1341.09 224.32 1339.65 222.88C1338.21 221.44 1336.11 220.72 1333.35 220.72C1330.95 220.72 1328.79 221.26 1326.87 222.34C1325.01 223.42 1323.54 224.92 1322.46 226.84C1321.44 228.76 1320.93 230.98 1320.93 233.5L1319.76 222.52C1321.32 219.16 1323.6 216.49 1326.6 214.51C1329.6 212.47 1333.2 211.45 1337.4 211.45C1342.38 211.45 1346.25 212.86 1349.01 215.68C1351.83 218.5 1353.24 222.25 1353.24 226.93V258.25H1341.81ZM1402.71 259.15C1397.07 259.15 1392.9 257.83 1390.2 255.19C1387.56 252.49 1386.24 248.47 1386.24 243.13V201.91L1397.67 197.68V243.4C1397.67 245.62 1398.27 247.27 1399.47 248.35C1400.67 249.43 1402.56 249.97 1405.14 249.97C1406.16 249.97 1407.06 249.91 1407.84 249.79C1408.68 249.61 1409.46 249.4 1410.18 249.16V257.98C1409.46 258.34 1408.44 258.61 1407.12 258.79C1405.8 259.03 1404.33 259.15 1402.71 259.15ZM1377.42 221.26V212.35H1410.18V221.26H1377.42ZM1418.67 258.25V193.45H1430.01V258.25H1418.67ZM1450.89 258.25V229.27C1450.89 226.45 1450.17 224.32 1448.73 222.88C1447.29 221.44 1445.19 220.72 1442.43 220.72C1440.03 220.72 1437.87 221.26 1435.95 222.34C1434.09 223.42 1432.62 224.92 1431.54 226.84C1430.52 228.76 1430.01 230.98 1430.01 233.5L1428.84 222.52C1430.4 219.16 1432.68 216.49 1435.68 214.51C1438.68 212.47 1442.28 211.45 1446.48 211.45C1451.46 211.45 1455.33 212.86 1458.09 215.68C1460.91 218.5 1462.32 222.25 1462.32 226.93V258.25H1450.89ZM1494.38 259.15C1489.52 259.15 1485.26 258.13 1481.6 256.09C1478 254.05 1475.18 251.23 1473.14 247.63C1471.16 244.03 1470.17 239.89 1470.17 235.21C1470.17 230.53 1471.16 226.42 1473.14 222.88C1475.18 219.28 1478 216.49 1481.6 214.51C1485.2 212.47 1489.4 211.45 1494.2 211.45C1498.76 211.45 1502.72 212.41 1506.08 214.33C1509.44 216.19 1512.05 218.83 1513.91 222.25C1515.77 225.67 1516.7 229.66 1516.7 234.22C1516.7 235.06 1516.67 235.84 1516.61 236.56C1516.55 237.28 1516.46 238 1516.34 238.72H1477.19V230.8H1507.61L1505.27 232.96C1505.27 228.64 1504.28 225.4 1502.3 223.24C1500.32 221.08 1497.56 220 1494.02 220C1490.18 220 1487.12 221.32 1484.84 223.96C1482.62 226.6 1481.51 230.41 1481.51 235.39C1481.51 240.31 1482.62 244.09 1484.84 246.73C1487.12 249.31 1490.33 250.6 1494.47 250.6C1496.87 250.6 1498.97 250.15 1500.77 249.25C1502.57 248.35 1503.89 246.97 1504.73 245.11H1515.44C1513.94 249.43 1511.39 252.85 1507.79 255.37C1504.25 257.89 1499.78 259.15 1494.38 259.15ZM1560.59 258.25V202.72H1539.08V193.45H1593.8V202.72H1572.29V258.25H1560.59ZM1602.36 258.25V193.45H1613.7V258.25H1602.36ZM1634.58 258.25V229.27C1634.58 226.45 1633.86 224.32 1632.42 222.88C1630.98 221.44 1628.88 220.72 1626.12 220.72C1623.72 220.72 1621.56 221.26 1619.64 222.34C1617.78 223.42 1616.31 224.92 1615.23 226.84C1614.21 228.76 1613.7 230.98 1613.7 233.5L1612.53 222.52C1614.09 219.16 1616.37 216.49 1619.37 214.51C1622.37 212.47 1625.97 211.45 1630.17 211.45C1635.15 211.45 1639.02 212.86 1641.78 215.68C1644.6 218.5 1646.01 222.25 1646.01 226.93V258.25H1634.58ZM1678.07 259.15C1673.21 259.15 1668.95 258.13 1665.29 256.09C1661.69 254.05 1658.87 251.23 1656.83 247.63C1654.85 244.03 1653.86 239.89 1653.86 235.21C1653.86 230.53 1654.85 226.42 1656.83 222.88C1658.87 219.28 1661.69 216.49 1665.29 214.51C1668.89 212.47 1673.09 211.45 1677.89 211.45C1682.45 211.45 1686.41 212.41 1689.77 214.33C1693.13 216.19 1695.74 218.83 1697.6 222.25C1699.46 225.67 1700.39 229.66 1700.39 234.22C1700.39 235.06 1700.36 235.84 1700.3 236.56C1700.24 237.28 1700.15 238 1700.03 238.72H1660.88V230.8H1691.3L1688.96 232.96C1688.96 228.64 1687.97 225.4 1685.99 223.24C1684.01 221.08 1681.25 220 1677.71 220C1673.87 220 1670.81 221.32 1668.53 223.96C1666.31 226.6 1665.2 230.41 1665.2 235.39C1665.2 240.31 1666.31 244.09 1668.53 246.73C1670.81 249.31 1674.02 250.6 1678.16 250.6C1680.56 250.6 1682.66 250.15 1684.46 249.25C1686.26 248.35 1687.58 246.97 1688.42 245.11H1699.13C1697.63 249.43 1695.08 252.85 1691.48 255.37C1687.94 257.89 1683.47 259.15 1678.07 259.15ZM1708.88 258.25V212.35H1719.95V223.15H1720.22V258.25H1708.88ZM1741.1 258.25V229.27C1741.1 226.45 1740.38 224.32 1738.94 222.88C1737.5 221.44 1735.4 220.72 1732.64 220.72C1730.24 220.72 1728.08 221.26 1726.16 222.34C1724.3 223.42 1722.83 224.92 1721.75 226.84C1720.73 228.76 1720.22 230.98 1720.22 233.5L1719.05 222.52C1720.61 219.16 1722.89 216.49 1725.89 214.51C1728.89 212.47 1732.49 211.45 1736.69 211.45C1741.67 211.45 1745.54 212.86 1748.3 215.68C1751.12 218.5 1752.53 222.25 1752.53 226.93V258.25H1741.1Z" fill="#E5EE0A"/>
<path d="M70 264.931C134.201 200.666 132.711 202.335 220.965 113.993C244.937 137.989 227.032 120.752 236.951 130.682C244.105 124.176 295.655 72.6745 301.993 66.3308C298.912 62.7985 290.831 55.2499 287.531 51.4661C309.422 45.5982 337.283 38.4808 354 34C350.164 49.5542 341.192 85.6553 336.912 101.635C331.283 95.5696 325.528 89.9612 321.681 86.3982C312.68 95.7492 252.924 153.466 236.951 169.467C227.16 159.658 234.966 166.619 220.965 152.593C164.778 208.836 162.774 210.737 126.346 247.202C134.873 255.745 138.855 259.253 144.522 264.931C120.888 265.025 95.3284 265.021 70 264.931Z" fill="#E5EE0A"/>
</g>
<defs>
<clipPath id="clip0_1_2">
<rect width="1859" height="300" fill="white"/>
</clipPath>
</defs>
</svg>
