<?xml version="1.0" encoding="UTF-8" standalone="no"?>
<!DOCTYPE svg PUBLIC "-//W3C//DTD SVG 1.1//EN" "http://www.w3.org/Graphics/SVG/1.1/DTD/svg11.dtd">
<!-- Generated by Microsoft Visio, SVG Export P12.svg Page-1 -->
<svg xmlns="http://www.w3.org/2000/svg" xmlns:xlink="http://www.w3.org/1999/xlink" xmlns:ev="http://www.w3.org/2001/xml-events"
		width="11.6929in" height="8.26772in" viewBox="0 0 841.89 595.276" xml:space="preserve" color-interpolation-filters="sRGB"
		class="st31">
	<style type="text/css">
	<![CDATA[
		.st1 {fill:#000000;stroke:none;stroke-width:0.25}
		.st2 {fill:#4672c4;fill-opacity:0.2;stroke:none;stroke-width:0.25}
		.st3 {fill:#feffff;font-family:Calibri;font-size:0.833336em}
		.st4 {font-size:1em;font-weight:bold}
		.st5 {font-size:1em}
		.st6 {fill:#538135;font-size:1em}
		.st7 {fill:#a8d08d;font-size:1em}
		.st8 {fill:#c5e0b3;font-size:1em}
		.st9 {fill:#c55a11;font-size:1em}
		.st10 {fill:#f4b183;font-size:1em}
		.st11 {fill:#f7cbac;font-size:1em}
		.st12 {fill:none;stroke:none;stroke-width:0.25}
		.st13 {fill:#ffffff;font-family:Calibri;font-size:1.99999em}
		.st14 {fill:url(#grad0-40);stroke:#c7c8c8;stroke-opacity:0;stroke-width:0.25}
		.st15 {fill:#feffff;font-family:Calibri;font-size:0.666664em}
		.st16 {fill:#4672c4;fill-opacity:0.5;stroke:#c7c8c8;stroke-opacity:0;stroke-width:0.25}
		.st17 {stroke:#4672c4;stroke-linecap:round;stroke-linejoin:round;stroke-width:1}
		.st18 {fill:#3c63ac;font-family:Calibri;font-size:0.666664em}
		.st19 {fill:#70ad47;font-family:Calibri;font-size:0.833336em}
		.st20 {fill:#ff0000;font-family:Calibri;font-size:0.833336em}
		.st21 {fill:#ffffff;font-family:Calibri;font-size:1.00001em}
		.st22 {stroke:#ffc000;stroke-linecap:round;stroke-linejoin:round;stroke-width:1.5}
		.st23 {fill:#000000;fill-opacity:0;stroke:none;stroke-linecap:butt;stroke-width:7.2}
		.st24 {fill:#ffc000;font-family:Calibri;font-size:0.833336em}
		.st25 {font-size:0.799995em}
		.st26 {stroke:#92d050;stroke-linecap:round;stroke-linejoin:round;stroke-width:1.5}
		.st27 {fill:#92d050;font-family:Calibri;font-size:0.833336em}
		.st28 {stroke:#ffffff;stroke-linecap:round;stroke-linejoin:round;stroke-width:2.25}
		.st29 {fill:#ffffff;font-family:Calibri;font-size:0.833336em}
		.st30 {stroke:#e8ebf4;stroke-linecap:round;stroke-linejoin:round;stroke-width:2.25}
		.st31 {fill:none;fill-rule:evenodd;font-size:12px;overflow:visible;stroke-linecap:square;stroke-miterlimit:3}
	]]>
	</style>

	<defs id="Patterns_And_Gradients">
		<linearGradient id="grad0-40" x1="0" y1="0" x2="1" y2="0" gradientTransform="rotate(0 0.5 0.5)">
			<stop offset="0" stop-color="#4672c4" stop-opacity="0"/>
			<stop offset="1" stop-color="#4672c4" stop-opacity="0.25"/>
		</linearGradient>
	</defs>
	<g>
		<title>VBackground-1</title>
		<g id="shape1-1">
			<title>Solid</title>
			<rect x="0" y="0" width="841.89" height="595.276" class="st1"/>
		</g>
	</g>
	<g>
		<title>Page-1</title>
		<g id="shape651-3" transform="translate(289.636,-18)">
			<title>Rectangle.651</title>
			<rect x="0" y="341.717" width="262.618" height="253.559" class="st2"/>
		</g>
		<g id="shape652-5" transform="translate(561.272,-18)">
			<title>Rectangle.652</title>
			<rect x="0" y="341.717" width="262.618" height="253.559" class="st2"/>
		</g>
		<g id="shape653-7" transform="translate(18,-281.055)">
			<title>Rectangle.653</title>
			<rect x="0" y="341.717" width="262.618" height="253.559" class="st2"/>
		</g>
		<g id="shape654-9" transform="translate(289.636,-282.331)">
			<title>Rectangle.654</title>
			<rect x="0" y="341.717" width="262.618" height="253.559" class="st2"/>
		</g>
		<g id="shape655-11" transform="translate(561.272,-282.331)">
			<title>Rectangle.655</title>
			<desc>Asia and London are both not broken by 0830: Directional, unl...</desc>
			<rect x="0" y="341.717" width="262.618" height="253.559" class="st2"/>
			<text x="4" y="369.5" class="st3">Asia and London are <tspan class="st4">both not broken</tspan> by 0830: <tspan x="4"
						dy="1.2em" class="st5">Directional, unlikely to get back to opposite side in Asia  </tspan><tspan x="4"
						dy="2.4em" class="st5">&#62; Expect one side of the daily candle in Asia, </tspan><tspan x="4" dy="1.2em"
						class="st5">one during RTH (0930 or 1500)  </tspan><tspan x="4" dy="2.4em" class="st5">Asia and London are </tspan><tspan
						class="st4">both broken</tspan>: <tspan x="4" dy="1.2em" class="st5">We range a lot, we do not go anywhere  </tspan><tspan
						x="4" dy="2.4em" class="st5">&#62;  Expect both Low of Day and High of Day during RTH </tspan><tspan x="4"
						dy="1.2em" class="st5">(one at </tspan>0930, the other one at 1500)  <tspan x="4" dy="2.4em" class="st5">Most common times for High of Day: </tspan><tspan
						x="4" dy="1.2em" class="st6">1500, </tspan><tspan class="st7">0930</tspan>, <tspan class="st8">1800</tspan>, 0300 <tspan
						x="4" dy="1.2em" class="st5">Most common times for Low of Day: </tspan><tspan x="4" dy="1.2em" class="st9">1800</tspan>, <tspan
						class="st10">0930</tspan>, <tspan class="st11">1500</tspan>, 0300  <tspan x="4" dy="2.4em" class="st4">If P12 set High or Low of Day, NY1 more likely true</tspan></text>		</g>
		<g id="shape656-32" transform="translate(18,-551.622)">
			<title>Sheet.656</title>
			<desc>Random P12 Observations</desc>
			<rect x="0" y="575.276" width="805.89" height="20" class="st12"/>
			<text x="274" y="592.48" class="st13">Random P12 Observations</text>		</g>
		<g id="shape716-35" transform="translate(18,-18)">
			<title>Rectangle.716</title>
			<rect x="0" y="341.717" width="262.618" height="253.559" class="st2"/>
		</g>
		<g id="shape717-37" transform="translate(24.3499,-31.9387)">
			<title>Rectangle.717</title>
			<desc>1800-0600</desc>
			<rect x="0" y="527.009" width="84.2171" height="68.2661" class="st14"/>
			<text x="4" y="521.44" class="st15">1800-0600</text>		</g>
		<g id="shape718-42" transform="translate(108.567,-31.9387)">
			<title>Rectangle.718</title>
			<desc>0600-0830</desc>
			<rect x="0" y="527.009" width="164.409" height="68.2661" class="st16"/>
			<text x="4" y="521.34" class="st15">0600-0830</text>		</g>
		<g id="shape719-45" transform="translate(24.3499,-66.0717)">
			<title>Sheet.719</title>
			<desc>P12 Mid</desc>
			<path d="M0 595.28 L248.63 595.28" class="st17"/>
			<text x="-1.12" y="604.06" class="st18">P12 Mid</text>		</g>
		<g id="shape720-49" transform="translate(24.3499,-100.205) rotate(1.09673E-07)">
			<title>Sheet.720</title>
			<desc>P12 High</desc>
			<path d="M0 595.28 L248.37 595.28" class="st17"/>
			<text x="-1.07" y="603.5" class="st18">P12 High</text>		</g>
		<g id="shape721-53" transform="translate(24.5275,-31.9387)">
			<title>Sheet.721</title>
			<desc>P12 Low</desc>
			<path d="M0 595.28 L248.45 595.28" class="st17"/>
			<text x="-1" y="603.48" class="st18">P12 Low</text>		</g>
		<g id="shape722-57" transform="translate(703.843,495.071) rotate(90)">
			<title>Sheet.722</title>
			<path d="M0 595.28 L68.27 595.28" class="st17"/>
		</g>
		<g id="shape723-60" transform="translate(-322.299,563.337) rotate(-90)">
			<title>Sheet.723</title>
			<path d="M0 595.28 L68.27 595.28" class="st17"/>
		</g>
		<g id="shape724-63" transform="translate(23.9387,-137.529)">
			<title>Rectangle.724</title>
			<desc>1800-0600</desc>
			<rect x="0" y="527.009" width="84.2171" height="68.2661" class="st14"/>
			<text x="4" y="521.44" class="st15">1800-0600</text>		</g>
		<g id="shape725-67" transform="translate(108.156,-137.529)">
			<title>Rectangle.725</title>
			<desc>0600-0830</desc>
			<rect x="0" y="527.009" width="164.409" height="68.2661" class="st16"/>
			<text x="4" y="521.44" class="st15">0600-0830</text>		</g>
		<g id="shape726-70" transform="translate(23.9387,-171.662)">
			<title>Sheet.726</title>
			<desc>P12 Mid</desc>
			<path d="M0 595.28 L248.63 595.28" class="st17"/>
			<text x="-1.12" y="604.06" class="st18">P12 Mid</text>		</g>
		<g id="shape727-74" transform="translate(23.9387,-205.795) rotate(1.09673E-07)">
			<title>Sheet.727</title>
			<desc>P12 High</desc>
			<path d="M0 595.28 L248.37 595.28" class="st17"/>
			<text x="-1.07" y="603.5" class="st18">P12 High</text>		</g>
		<g id="shape728-78" transform="translate(24.1164,-137.529)">
			<title>Sheet.728</title>
			<desc>P12 Low</desc>
			<path d="M0 595.28 L248.45 595.28" class="st17"/>
			<text x="-1" y="603.48" class="st18">P12 Low</text>		</g>
		<g id="shape729-82" transform="translate(703.431,389.48) rotate(90)">
			<title>Sheet.729</title>
			<path d="M0 595.28 L68.27 595.28" class="st17"/>
		</g>
		<g id="shape730-85" transform="translate(-322.71,457.746) rotate(-90)">
			<title>Sheet.730</title>
			<path d="M0 595.28 L68.27 595.28" class="st17"/>
		</g>
		<g id="shape731-88" transform="translate(18,-216.976)">
			<title>Sheet.731</title>
			<desc>Low of Day likely already in:</desc>
			<rect x="0" y="575.276" width="262.618" height="20" class="st12"/>
			<text x="74.81" y="588.28" class="st19">Low of Day likely already in:</text>		</g>
		<g id="shape732-91" transform="translate(18,-110.756)">
			<title>Sheet.732</title>
			<desc>High of Day likely already in:</desc>
			<rect x="0" y="575.276" width="262.618" height="20" class="st12"/>
			<text x="73.88" y="588.28" class="st20">High of Day likely already in:</text>		</g>
		<g id="shape733-94" transform="translate(18,-243.559)">
			<title>Sheet.733</title>
			<desc>Scenario 3: Range between P12 Mid and P12 High/Low, then brea...</desc>
			<rect x="0" y="579.181" width="262.618" height="16.095" class="st12"/>
			<text x="43.45" y="583.63" class="st21">Scenario 3: Range between P12 Mid <tspan x="49.18" dy="1.2em" class="st5">and P12 High/Low, then breakout</tspan></text>		</g>
		<g id="shape771-98" transform="translate(294.503,-31.9387)">
			<title>Rectangle.771</title>
			<desc>1800-0600</desc>
			<rect x="0" y="527.009" width="84.2171" height="68.2661" class="st14"/>
			<text x="4" y="521.44" class="st15">1800-0600</text>		</g>
		<g id="shape772-102" transform="translate(378.72,-31.9387)">
			<title>Rectangle.772</title>
			<desc>0600-0830</desc>
			<rect x="0" y="527.009" width="164.409" height="68.2661" class="st16"/>
			<text x="4" y="521.06" class="st15">0600-0830</text>		</g>
		<g id="shape773-105" transform="translate(294.503,-66.0717)">
			<title>Sheet.773</title>
			<desc>P12 Mid</desc>
			<path d="M0 595.28 L248.63 595.28" class="st17"/>
			<text x="-1.12" y="604.06" class="st18">P12 Mid</text>		</g>
		<g id="shape774-109" transform="translate(294.503,-100.205) rotate(1.09673E-07)">
			<title>Sheet.774</title>
			<desc>P12 High</desc>
			<path d="M0 595.28 L248.37 595.28" class="st17"/>
			<text x="-1.07" y="603.5" class="st18">P12 High</text>		</g>
		<g id="shape775-113" transform="translate(294.681,-31.9387)">
			<title>Sheet.775</title>
			<desc>P12 Low</desc>
			<path d="M0 595.28 L248.45 595.28" class="st17"/>
			<text x="-1" y="603.48" class="st18">P12 Low</text>		</g>
		<g id="shape776-117" transform="translate(973.996,495.071) rotate(90)">
			<title>Sheet.776</title>
			<path d="M0 595.28 L68.27 595.28" class="st17"/>
		</g>
		<g id="shape777-120" transform="translate(-52.1457,563.337) rotate(-90)">
			<title>Sheet.777</title>
			<path d="M0 595.28 L68.27 595.28" class="st17"/>
		</g>
		<g id="shape778-123" transform="translate(294.092,-137.529)">
			<title>Rectangle.778</title>
			<desc>1800-0600</desc>
			<rect x="0" y="527.009" width="84.2171" height="68.2661" class="st14"/>
			<text x="4" y="521.44" class="st15">1800-0600</text>		</g>
		<g id="shape779-127" transform="translate(378.309,-137.529)">
			<title>Rectangle.779</title>
			<desc>0600-0830</desc>
			<rect x="0" y="527.009" width="164.409" height="68.2661" class="st16"/>
			<text x="4" y="521.44" class="st15">0600-0830</text>		</g>
		<g id="shape780-130" transform="translate(294.092,-171.662)">
			<title>Sheet.780</title>
			<desc>P12 Mid</desc>
			<path d="M0 595.28 L248.63 595.28" class="st17"/>
			<text x="-1.12" y="604.06" class="st18">P12 Mid</text>		</g>
		<g id="shape781-134" transform="translate(294.092,-205.795) rotate(1.09673E-07)">
			<title>Sheet.781</title>
			<desc>P12 High</desc>
			<path d="M0 595.28 L248.37 595.28" class="st17"/>
			<text x="-1.07" y="603.5" class="st18">P12 High</text>		</g>
		<g id="shape782-138" transform="translate(294.27,-137.529)">
			<title>Sheet.782</title>
			<desc>P12 Low</desc>
			<path d="M0 595.28 L248.45 595.28" class="st17"/>
			<text x="-1" y="603.48" class="st18">P12 Low</text>		</g>
		<g id="shape783-142" transform="translate(973.585,389.48) rotate(90)">
			<title>Sheet.783</title>
			<path d="M0 595.28 L68.27 595.28" class="st17"/>
		</g>
		<g id="shape784-145" transform="translate(-52.5568,457.746) rotate(-90)">
			<title>Sheet.784</title>
			<path d="M0 595.28 L68.27 595.28" class="st17"/>
		</g>
		<g id="shape785-148" transform="translate(288.154,-216.976)">
			<title>Sheet.785</title>
			<desc>Low of Day likely already in:</desc>
			<rect x="0" y="575.276" width="262.618" height="20" class="st12"/>
			<text x="74.81" y="588.28" class="st19">Low of Day likely already in:</text>		</g>
		<g id="shape786-151" transform="translate(288.154,-110.756)">
			<title>Sheet.786</title>
			<desc>High of Day likely already in:</desc>
			<rect x="0" y="575.276" width="262.618" height="20" class="st12"/>
			<text x="73.88" y="588.28" class="st20">High of Day likely already in:</text>		</g>
		<g id="shape787-154" transform="translate(288.154,-243.559)">
			<title>Sheet.787</title>
			<desc>Scenario 4: Look and stay outside P12</desc>
			<rect x="0" y="579.181" width="262.618" height="16.095" class="st12"/>
			<text x="39.51" y="590.83" class="st21">Scenario 4: Look and stay outside P12</text>		</g>
		<g id="shape788-157" transform="translate(296.334,-296.032)">
			<title>Rectangle.788</title>
			<desc>1800-0600</desc>
			<rect x="0" y="527.009" width="84.2171" height="68.2661" class="st14"/>
			<text x="4" y="521.44" class="st15">1800-0600</text>		</g>
		<g id="shape789-161" transform="translate(380.551,-296.032)">
			<title>Rectangle.789</title>
			<desc>0600-0830</desc>
			<rect x="0" y="527.009" width="164.409" height="68.2661" class="st16"/>
			<text x="4" y="521.44" class="st15">0600-0830</text>		</g>
		<g id="shape790-164" transform="translate(296.334,-330.165)">
			<title>Sheet.790</title>
			<desc>P12 Mid</desc>
			<path d="M0 595.28 L248.63 595.28" class="st17"/>
			<text x="-1.12" y="604.06" class="st18">P12 Mid</text>		</g>
		<g id="shape791-168" transform="translate(296.334,-364.298) rotate(1.09673E-07)">
			<title>Sheet.791</title>
			<desc>P12 High</desc>
			<path d="M0 595.28 L248.37 595.28" class="st17"/>
			<text x="-1.07" y="603.5" class="st18">P12 High</text>		</g>
		<g id="shape792-172" transform="translate(296.512,-296.032)">
			<title>Sheet.792</title>
			<desc>P12 Low</desc>
			<path d="M0 595.28 L248.45 595.28" class="st17"/>
			<text x="-1" y="603.48" class="st18">P12 Low</text>		</g>
		<g id="shape793-176" transform="translate(975.827,230.977) rotate(90)">
			<title>Sheet.793</title>
			<path d="M0 595.28 L68.27 595.28" class="st17"/>
		</g>
		<g id="shape794-179" transform="translate(-50.315,299.243) rotate(-90)">
			<title>Sheet.794</title>
			<path d="M0 595.28 L68.27 595.28" class="st17"/>
		</g>
		<g id="shape795-182" transform="translate(295.923,-401.623)">
			<title>Rectangle.795</title>
			<desc>1800-0600</desc>
			<rect x="0" y="527.009" width="84.2171" height="68.2661" class="st14"/>
			<text x="3.73" y="521.44" class="st15">1800-0600</text>		</g>
		<g id="shape796-186" transform="translate(380.14,-401.623)">
			<title>Rectangle.796</title>
			<desc>0600-0830</desc>
			<rect x="0" y="527.009" width="164.409" height="68.2661" class="st16"/>
			<text x="4" y="521.44" class="st15">0600-0830</text>		</g>
		<g id="shape797-189" transform="translate(295.923,-435.756)">
			<title>Sheet.797</title>
			<desc>P12 Mid</desc>
			<path d="M0 595.28 L248.63 595.28" class="st17"/>
			<text x="-1.12" y="604.06" class="st18">P12 Mid</text>		</g>
		<g id="shape798-193" transform="translate(295.923,-469.889) rotate(1.09673E-07)">
			<title>Sheet.798</title>
			<desc>P12 High</desc>
			<path d="M0 595.28 L248.37 595.28" class="st17"/>
			<text x="-1.07" y="603.5" class="st18">P12 High</text>		</g>
		<g id="shape799-197" transform="translate(296.101,-401.623)">
			<title>Sheet.799</title>
			<desc>P12 Low</desc>
			<path d="M0 595.28 L248.45 595.28" class="st17"/>
			<text x="-1" y="603.48" class="st18">P12 Low</text>		</g>
		<g id="shape800-201" transform="translate(975.416,125.387) rotate(90)">
			<title>Sheet.800</title>
			<path d="M0 595.28 L68.27 595.28" class="st17"/>
		</g>
		<g id="shape801-204" transform="translate(-50.7261,193.653) rotate(-90)">
			<title>Sheet.801</title>
			<path d="M0 595.28 L68.27 595.28" class="st17"/>
		</g>
		<g id="shape802-207" transform="translate(289.984,-481.07)">
			<title>Sheet.802</title>
			<desc>Low of Day likely already in:</desc>
			<rect x="0" y="575.276" width="262.618" height="20" class="st12"/>
			<text x="74.81" y="588.28" class="st19">Low of Day likely already in:</text>		</g>
		<g id="shape803-210" transform="translate(289.984,-374.85)">
			<title>Sheet.803</title>
			<desc>High of Day likely already in:</desc>
			<rect x="0" y="575.276" width="262.618" height="20" class="st12"/>
			<text x="73.88" y="588.28" class="st20">High of Day likely already in:</text>		</g>
		<g id="shape804-213" transform="translate(289.984,-507.652)">
			<title>Sheet.804</title>
			<desc>Scenario 2: Look outside P12 and fail all the way back to P12...</desc>
			<rect x="0" y="579.181" width="262.618" height="16.095" class="st12"/>
			<text x="14.28" y="583.63" class="st21">Scenario 2: Look outside P12 and fail all the way <tspan x="91.93" dy="1.2em"
						class="st5">back to P12 Mid</tspan></text>		</g>
		<g id="shape822-217" transform="translate(24.3499,-295.561)">
			<title>Rectangle.822</title>
			<desc>1800-0600</desc>
			<rect x="0" y="527.009" width="84.2171" height="68.2661" class="st14"/>
			<text x="4" y="521.44" class="st15">1800-0600</text>		</g>
		<g id="shape823-221" transform="translate(108.567,-295.561)">
			<title>Rectangle.823</title>
			<desc>0600-0830</desc>
			<rect x="0" y="527.009" width="164.409" height="68.2661" class="st16"/>
			<text x="4" y="521.44" class="st15">0600-0830</text>		</g>
		<g id="shape824-224" transform="translate(24.3499,-329.694)">
			<title>Sheet.824</title>
			<desc>P12 Mid</desc>
			<path d="M0 595.28 L248.63 595.28" class="st17"/>
			<text x="-1.12" y="604.06" class="st18">P12 Mid</text>		</g>
		<g id="shape825-228" transform="translate(24.3499,-363.827) rotate(1.09673E-07)">
			<title>Sheet.825</title>
			<desc>P12 High</desc>
			<path d="M0 595.28 L248.37 595.28" class="st17"/>
			<text x="-1.07" y="603.5" class="st18">P12 High</text>		</g>
		<g id="shape826-232" transform="translate(24.5275,-295.561)">
			<title>Sheet.826</title>
			<desc>P12 Low</desc>
			<path d="M0 595.28 L248.45 595.28" class="st17"/>
			<text x="-1" y="603.48" class="st18">P12 Low</text>		</g>
		<g id="shape827-236" transform="translate(703.843,231.449) rotate(90)">
			<title>Sheet.827</title>
			<path d="M0 595.28 L68.27 595.28" class="st17"/>
		</g>
		<g id="shape828-239" transform="translate(-322.299,299.715) rotate(-90)">
			<title>Sheet.828</title>
			<path d="M0 595.28 L68.27 595.28" class="st17"/>
		</g>
		<g id="shape829-242" transform="translate(23.9387,-401.151)">
			<title>Rectangle.829</title>
			<desc>1800-0600</desc>
			<rect x="0" y="527.009" width="84.2171" height="68.2661" class="st14"/>
			<text x="4" y="521.44" class="st15">1800-0600</text>		</g>
		<g id="shape830-246" transform="translate(108.156,-401.151)">
			<title>Rectangle.830</title>
			<desc>0600-0830</desc>
			<rect x="0" y="527.009" width="164.409" height="68.2661" class="st16"/>
			<text x="4.41" y="521.44" class="st15">0600-0830</text>		</g>
		<g id="shape831-249" transform="translate(23.9387,-435.284)">
			<title>Sheet.831</title>
			<desc>P12 Mid</desc>
			<path d="M0 595.28 L248.63 595.28" class="st17"/>
			<text x="-1.12" y="604.06" class="st18">P12 Mid</text>		</g>
		<g id="shape832-253" transform="translate(23.9387,-469.417) rotate(1.09673E-07)">
			<title>Sheet.832</title>
			<desc>P12 High</desc>
			<path d="M0 595.28 L248.37 595.28" class="st17"/>
			<text x="-1.07" y="603.5" class="st18">P12 High</text>		</g>
		<g id="shape833-257" transform="translate(24.1164,-401.151)">
			<title>Sheet.833</title>
			<desc>P12 Low</desc>
			<path d="M0 595.28 L248.45 595.28" class="st17"/>
			<text x="-1" y="603.48" class="st18">P12 Low</text>		</g>
		<g id="shape834-261" transform="translate(703.431,125.858) rotate(90)">
			<title>Sheet.834</title>
			<path d="M0 595.28 L68.27 595.28" class="st17"/>
		</g>
		<g id="shape835-264" transform="translate(-322.71,194.124) rotate(-90)">
			<title>Sheet.835</title>
			<path d="M0 595.28 L68.27 595.28" class="st17"/>
		</g>
		<g id="shape836-267" transform="translate(18,-482.016)">
			<title>Sheet.836</title>
			<desc>Low of Day likely already in:</desc>
			<rect x="0" y="575.276" width="262.618" height="20" class="st12"/>
			<text x="74.81" y="588.28" class="st19">Low of Day likely already in:</text>		</g>
		<g id="shape837-270" transform="translate(18,-374.378)">
			<title>Sheet.837</title>
			<desc>High of Day likely already in:</desc>
			<rect x="0" y="575.276" width="262.618" height="20" class="st12"/>
			<text x="73.88" y="588.28" class="st20">High of Day likely already in:</text>		</g>
		<g id="shape838-273" transform="translate(18,-507.181)">
			<title>Sheet.838</title>
			<desc>Scenario 1: P12 Mid rejection, then stay outside P12</desc>
			<rect x="0" y="579.181" width="262.618" height="16.095" class="st12"/>
			<text x="4" y="590.83" class="st21">Scenario 1: P12 Mid rejection, then stay outside P12</text>		</g>
		<g id="shape860-276" transform="translate(226.526,-352.921) rotate(-23.3378)">
			<title>Sheet.860</title>
			<desc>Alert (suck back into P12)</desc>
			<path d="M0 595.28 L40.87 595.28" class="st22"/>
			<rect x="253.546" y="523.826" width="64.863" height="24.0002" transform="rotate(23.3378)" class="st23"/>
			<text x="276.03" y="532.83" transform="rotate(23.3378)" class="st24">Alert<tspan x="253.55" dy="1.5em" class="st25">(suck back into P12)</tspan></text>		</g>
		<g id="shape861-282" transform="translate(332.029,731.11) rotate(-163.865)">
			<title>Sheet.861</title>
			<desc>Confirmation (break P12 Mid)</desc>
			<path d="M0 595.28 L18.27 595.28" class="st26"/>
			<rect x="92.0376" y="-583.698" width="53.6429" height="24.0002" transform="rotate(163.865)" class="st23"/>
			<text x="92.04" y="-574.7" transform="rotate(163.865)" class="st27">Confirmation<tspan x="92.84" dy="1.5em"
						class="st25">(break P12 Mid)</tspan></text>		</g>
		<g id="shape867-288" transform="translate(413.504,-389.608)">
			<title>Sheet.867</title>
			<path d="M0 566.67 L36.46 595.28 L130.96 502.98" class="st28"/>
		</g>
		<g id="shape868-291" transform="translate(489.778,768.337) rotate(-10.4968) scale(1,-1)">
			<title>Sheet.868</title>
			<path d="M0 595.28 L32.72 595.28" class="st28"/>
		</g>
		<g id="shape871-294" transform="translate(825.621,760.081) rotate(146.253)">
			<title>Sheet.871</title>
			<desc>Confirmation</desc>
			<path d="M0 595.28 L19.77 595.28" class="st26"/>
			<rect x="-402.301" y="-486.197" width="53.6429" height="12.0001" transform="rotate(-146.253)" class="st23"/>
			<text x="-402.3" y="-477.2" transform="rotate(-146.253)" class="st27">Confirmation</text>		</g>
		<g id="shape863-299" transform="translate(412.724,814.71) scale(1,-1)">
			<title>Sheet.863</title>
			<path d="M0 566.67 L36.46 595.28 L130.96 502.98" class="st28"/>
		</g>
		<g id="shape864-302" transform="translate(488.999,-343.235) rotate(10.4968)">
			<title>Sheet.864</title>
			<path d="M0 595.28 L32.72 595.28" class="st28"/>
		</g>
		<g id="group885-305" transform="translate(378.775,-183.118)">
			<title>Sheet.885</title>
		</g>
		<g id="group890-306" transform="translate(378.775,-183.118)">
			<title>Sheet.890</title>
		</g>
		<g id="shape922-307" transform="translate(567.621,-31.23)">
			<title>Rectangle.922</title>
			<desc>1800-0600</desc>
			<rect x="0" y="527.009" width="84.2171" height="68.2661" class="st14"/>
			<text x="4" y="521.44" class="st15">1800-0600</text>		</g>
		<g id="shape923-311" transform="translate(651.839,-31.23)">
			<title>Rectangle.923</title>
			<desc>0600-0830</desc>
			<rect x="0" y="527.009" width="164.409" height="68.2661" class="st16"/>
			<text x="4" y="521.44" class="st15">0600-0830</text>		</g>
		<g id="shape924-314" transform="translate(567.621,-65.3631)">
			<title>Sheet.924</title>
			<desc>P12 Mid</desc>
			<path d="M0 595.28 L248.63 595.28" class="st17"/>
			<text x="-1.12" y="604.06" class="st18">P12 Mid</text>		</g>
		<g id="shape925-318" transform="translate(567.621,-99.4961) rotate(1.09673E-07)">
			<title>Sheet.925</title>
			<desc>P12 High</desc>
			<path d="M0 595.28 L248.37 595.28" class="st17"/>
			<text x="-1.07" y="603.5" class="st18">P12 High</text>		</g>
		<g id="shape926-322" transform="translate(567.799,-31.23)">
			<title>Sheet.926</title>
			<desc>P12 Low</desc>
			<path d="M0 595.28 L248.45 595.28" class="st17"/>
			<text x="-1" y="603.48" class="st18">P12 Low</text>		</g>
		<g id="shape927-326" transform="translate(1247.11,495.779) rotate(90)">
			<title>Sheet.927</title>
			<path d="M0 595.28 L68.27 595.28" class="st17"/>
		</g>
		<g id="shape928-329" transform="translate(220.972,564.046) rotate(-90)">
			<title>Sheet.928</title>
			<path d="M0 595.28 L68.27 595.28" class="st17"/>
		</g>
		<g id="shape929-332" transform="translate(567.21,-136.821)">
			<title>Rectangle.929</title>
			<desc>1800-0600</desc>
			<rect x="0" y="527.009" width="84.2171" height="68.2661" class="st14"/>
			<text x="4" y="521.44" class="st15">1800-0600</text>		</g>
		<g id="shape930-336" transform="translate(651.427,-136.821)">
			<title>Rectangle.930</title>
			<desc>0600-0830</desc>
			<rect x="0" y="527.009" width="164.409" height="68.2661" class="st16"/>
			<text x="4" y="521.44" class="st15">0600-0830</text>		</g>
		<g id="shape931-339" transform="translate(567.21,-170.954)">
			<title>Sheet.931</title>
			<desc>P12 Mid</desc>
			<path d="M0 595.28 L248.63 595.28" class="st17"/>
			<text x="-1.12" y="604.06" class="st18">P12 Mid</text>		</g>
		<g id="shape932-343" transform="translate(567.21,-205.087) rotate(1.09673E-07)">
			<title>Sheet.932</title>
			<desc>P12 High</desc>
			<path d="M0 595.28 L248.37 595.28" class="st17"/>
			<text x="-1.07" y="603.5" class="st18">P12 High</text>		</g>
		<g id="shape933-347" transform="translate(567.388,-136.821)">
			<title>Sheet.933</title>
			<desc>P12 Low</desc>
			<path d="M0 595.28 L248.45 595.28" class="st17"/>
			<text x="-1" y="603.48" class="st18">P12 Low</text>		</g>
		<g id="shape934-351" transform="translate(1246.7,390.189) rotate(90)">
			<title>Sheet.934</title>
			<path d="M0 595.28 L68.27 595.28" class="st17"/>
		</g>
		<g id="shape935-354" transform="translate(220.561,458.455) rotate(-90)">
			<title>Sheet.935</title>
			<path d="M0 595.28 L68.27 595.28" class="st17"/>
		</g>
		<g id="shape936-357" transform="translate(561.272,-216.268)">
			<title>Sheet.936</title>
			<desc>Large range taking out all levels:</desc>
			<rect x="0" y="575.276" width="262.618" height="20" class="st12"/>
			<text x="66.05" y="588.28" class="st29">Large range taking out all levels:</text>		</g>
		<g id="shape937-360" transform="translate(561.272,-110.047)">
			<title>Sheet.937</title>
			<desc>Small range around P12 Mid:</desc>
			<rect x="0" y="575.276" width="262.618" height="20" class="st12"/>
			<text x="72.51" y="588.28" class="st29">Small range around P12 Mid:</text>		</g>
		<g id="shape938-363" transform="translate(561.272,-242.85)">
			<title>Sheet.938</title>
			<desc>Scenario 5: Expect High and Low of Day in RTH (one 0930, one ...</desc>
			<rect x="0" y="579.181" width="262.618" height="16.095" class="st12"/>
			<text x="18.33" y="583.63" class="st21">Scenario 5: Expect High and Low of Day in RTH <tspan x="79.17" dy="1.2em"
						class="st5">(one </tspan>0930, one 1500)</text>		</g>
		<g id="group939-367" transform="translate(652.819,-50.9851)">
			<title>Sheet.939</title>
			<g id="group940-368" transform="translate(22.4144,1157.31) scale(1,-1)">
				<title>Sheet.940</title>
				<g id="shape941-369">
					<title>Sheet.941</title>
					<path d="M0 584.97 L21.62 595.28 L77.63 562.03 L96.95 576.73 L103.89 570.81" class="st28"/>
				</g>
				<g id="shape942-372" transform="translate(296.77,7.64323) rotate(18.9057)">
					<title>Sheet.942</title>
					<path d="M0 595.28 L16.55 595.28" class="st28"/>
				</g>
				<g id="shape943-375" transform="translate(-76.5764,14.0939) rotate(-19.2315)">
					<title>Sheet.943</title>
					<path d="M0 595.28 L22.17 595.28" class="st28"/>
				</g>
			</g>
			<g id="shape944-378" transform="translate(356.648,1064.92) rotate(145.842)">
				<title>Sheet.944</title>
				<path d="M0 595.28 L27.09 595.28" class="st28"/>
			</g>
		</g>
		<g id="group945-381" transform="translate(652.819,-131.386)">
			<title>Sheet.945</title>
			<g id="shape946-382">
				<title>Sheet.946</title>
				<path d="M0 568.92 L30.67 595.28 L110.14 510.24 L137.55 547.82 L147.4 532.68" class="st28"/>
			</g>
			<g id="shape947-385" transform="translate(702.109,316.685) rotate(68.7251)">
				<title>Sheet.947</title>
				<path d="M0 595.28 L42.97 595.28" class="st28"/>
			</g>
		</g>
		<g id="shape951-388" transform="translate(91.4817,880.124) rotate(-166.837)">
			<title>Sheet.951</title>
			<desc>Confirmation</desc>
			<path d="M0 595.28 L39.25 595.28" class="st26"/>
			<rect x="41.2875" y="-595.617" width="53.6429" height="12.0001" transform="rotate(166.837)" class="st23"/>
			<text x="41.29" y="-586.62" transform="rotate(166.837)" class="st27">Confirmation</text>		</g>
		<g id="shape952-393" transform="translate(-238.183,-154.523) rotate(-45)">
			<title>Sheet.952</title>
			<desc>Alert</desc>
			<path d="M0 595.28 L26.38 595.28" class="st22"/>
			<rect x="443.154" y="394.276" width="19.8929" height="12.0001" transform="rotate(45)" class="st23"/>
			<text x="443.15" y="403.28" transform="rotate(45)" class="st24">Alert</text>		</g>
		<g id="shape957-398" transform="translate(825.449,389.48) rotate(90)">
			<title>Sheet.957</title>
			<desc>Confirmation (break out of P12)</desc>
			<path d="M0 595.28 L11.1 595.28" class="st26"/>
			<rect x="-610.706" y="10.6772" width="58.7227" height="24.0002" transform="rotate(-90)" class="st23"/>
			<text x="-608.17" y="19.68" transform="rotate(-90)" class="st27">Confirmation<tspan x="-610.71" dy="1.5em" class="st25">(break out of P12)</tspan></text>		</g>
		<g id="shape958-404" transform="translate(621.263,-3.13291) rotate(45)">
			<title>Sheet.958</title>
			<desc>Alert (bounce off P12 Mid)</desc>
			<path d="M0 595.28 L27.62 595.28" class="st22"/>
			<rect x="-423.735" y="434.826" width="68.6912" height="24.0002" transform="rotate(-45)" class="st23"/>
			<text x="-399.34" y="443.83" transform="rotate(-45)" class="st24">Alert<tspan x="-423.73" dy="1.5em" class="st25">(bounce off P12 Mid)</tspan></text>		</g>
		<g id="shape965-410" transform="translate(825.449,562.394) rotate(90) scale(-1,1)">
			<title>Sheet.965</title>
			<desc>Confirmation</desc>
			<path d="M0 595.28 L11.1 595.28" class="st26"/>
			<rect x="554.181" y="-23.0078" width="53.6429" height="12.0001" transform="rotate(90)" class="st23"/>
			<text x="-607.82" y="-14.01" transform="rotate(90) scale(-1,1)" class="st27">Confirmation</text>		</g>
		<g id="shape966-415" transform="translate(621.263,955.007) rotate(-45) scale(1,-1)">
			<title>Sheet.966</title>
			<desc>Alert</desc>
			<path d="M0 595.28 L27.62 595.28" class="st22"/>
			<rect x="-399.336" y="435.865" width="19.8929" height="12.0001" transform="rotate(-45)" class="st23"/>
			<text x="-399.34" y="-438.87" transform="rotate(-45) scale(1,-1)" class="st24">Alert</text>		</g>
		<g id="group961-420" transform="translate(108.157,1125) scale(1,-1)">
			<title>Sheet.961</title>
			<g id="shape962-421" transform="translate(-1.19904E-14,-5.83531E-06)">
				<title>Sheet.962</title>
				<path d="M0 585.09 L13.89 595.28 L49.88 562.41 L62.3 576.94 L66.76 571.08" class="st28"/>
			</g>
			<g id="shape963-424" transform="translate(514.775,179.118) rotate(48.8177)">
				<title>Sheet.963</title>
				<path d="M0 595.28 L32.15 595.28" class="st28"/>
			</g>
			<g id="shape964-427" transform="translate(87.8832,-0.0500829)">
				<title>Sheet.964</title>
				<path d="M0 595.28 L52.25 542.9 L63.44 551.63 L78.35 535.73" class="st30"/>
			</g>
		</g>
		<g id="group879-430" transform="translate(108.157,-173.124)">
			<title>Sheet.879</title>
			<g id="shape876-431" transform="translate(-1.19904E-14,-5.83531E-06)">
				<title>Sheet.876</title>
				<path d="M0 585.09 L13.89 595.28 L49.88 562.41 L62.3 576.94 L66.76 571.08" class="st28"/>
			</g>
			<g id="shape877-434" transform="translate(514.775,179.118) rotate(48.8177)">
				<title>Sheet.877</title>
				<path d="M0 595.28 L32.15 595.28" class="st28"/>
			</g>
			<g id="shape878-437" transform="translate(87.8832,-0.0500829)">
				<title>Sheet.878</title>
				<path d="M0 595.28 L52.25 542.9 L63.44 551.63 L78.35 535.73" class="st30"/>
			</g>
		</g>
		<g id="group854-440" transform="translate(108.567,855.556) scale(1,-1)">
			<title>Sheet.854</title>
			<g id="shape855-441" transform="translate(166.741,4.50736) rotate(16.2666)">
				<title>Sheet.855</title>
				<path d="M0 595.28 L68.98 595.28" class="st28"/>
			</g>
			<g id="shape856-444" transform="translate(-296.821,123.519) rotate(-37.5802)">
				<title>Sheet.856</title>
				<path d="M0 595.28 L88.13 595.28" class="st28"/>
			</g>
		</g>
		<g id="shape967-447" transform="translate(91.4817,-454.411) rotate(-13.1626) scale(-1,1)">
			<title>Sheet.967</title>
			<desc>Confirmation (break out of P12)</desc>
			<path d="M0 595.28 L39.25 595.28" class="st26"/>
			<rect x="-97.4702" y="581.679" width="58.7227" height="24.0002" transform="rotate(-13.1626)" class="st23"/>
			<text x="41.29" y="590.68" transform="rotate(-13.1626) scale(-1,1)" class="st27">Confirmation<tspan x="38.75"
						dy="1.5em" class="st25">(break out of P12)</tspan></text>		</g>
		<g id="shape968-453" transform="translate(-213.298,603.729) rotate(41.7055) scale(1,-1)">
			<title>Sheet.968</title>
			<desc>Alert (reject P12 Mid)</desc>
			<path d="M0 595.28 L22.15 595.28" class="st22"/>
			<rect x="398.584" y="411.658" width="52.3161" height="24.0002" transform="rotate(41.7055)" class="st23"/>
			<text x="414.8" y="-426.66" transform="rotate(41.7055) scale(1,-1)" class="st24">Alert<tspan x="398.58" dy="1.5em"
						class="st25">(reject P12 Mid)</tspan></text>		</g>
		<g id="group969-459" transform="translate(108.567,-429.843)">
			<title>Sheet.969</title>
			<g id="shape970-460" transform="translate(166.741,4.50736) rotate(16.2666)">
				<title>Sheet.970</title>
				<path d="M0 595.28 L68.98 595.28" class="st28"/>
			</g>
			<g id="shape971-463" transform="translate(-296.821,123.519) rotate(-37.5802)">
				<title>Sheet.971</title>
				<path d="M0 595.28 L88.13 595.28" class="st28"/>
			</g>
		</g>
		<g id="shape972-466" transform="translate(1027.33,538.576) rotate(105.943)">
			<title>Sheet.972</title>
			<desc>Alert (step outside P12)</desc>
			<path d="M0 595.28 L22.65 595.28" class="st22"/>
			<rect x="-616.015" y="-141.324" width="58.9526" height="24.0002" transform="rotate(-105.943)" class="st23"/>
			<text x="-596.49" y="-132.32" transform="rotate(-105.943)" class="st24">Alert<tspan x="-616.02" dy="1.5em" class="st25">(step outside P12)</tspan></text>		</g>
		<g id="shape973-472" transform="translate(790.664,-123.479) rotate(31.4455)">
			<title>Sheet.973</title>
			<desc>Confirmation (bounce off P12)</desc>
			<path d="M0 595.28 L25.01 595.28" class="st26"/>
			<rect x="-309.414" y="520.716" width="54.0038" height="24.0002" transform="rotate(-31.4455)" class="st23"/>
			<text x="-309.23" y="529.72" transform="rotate(-31.4455)" class="st27">Confirmation<tspan x="-309.41" dy="1.5em"
						class="st25">(bounce off P12)</tspan></text>		</g>
		<g id="group891-478" transform="translate(378.775,-183.118)">
			<title>Sheet.891</title>
			<g id="shape886-479" transform="translate(-3.21115E-06,1.7008)">
				<title>Sheet.886</title>
				<path d="M0 582.98 L20.94 595.28 L75.22 555.59 L93.93 573.13 L100.66 566.06" class="st28"/>
			</g>
			<g id="shape889-482" transform="translate(-120.737,15.1909) rotate(-21.8737)">
				<title>Sheet.889</title>
				<path d="M0 595.28 L58.13 595.28" class="st28"/>
			</g>
		</g>
		<g id="group978-485" transform="translate(404.032,-157.861)">
			<title>Sheet.978</title>
		</g>
		<g id="shape980-486" transform="translate(1028.29,414.999) rotate(74.0574) scale(-1,1)">
			<title>Sheet.980</title>
			<desc>Alert</desc>
			<path d="M0 595.28 L22.65 595.28" class="st22"/>
			<rect x="578.212" y="129.702" width="19.8929" height="12.0001" transform="rotate(74.0574)" class="st23"/>
			<text x="-598.1" y="138.7" transform="rotate(74.0574) scale(-1,1)" class="st24">Alert</text>		</g>
		<g id="shape981-491" transform="translate(791.623,1077.05) rotate(-31.4455) scale(1,-1)">
			<title>Sheet.981</title>
			<desc>Confirmation</desc>
			<path d="M0 595.28 L25.01 595.28" class="st26"/>
			<rect x="-314.862" y="520.215" width="53.6429" height="12.0001" transform="rotate(-31.4455)" class="st23"/>
			<text x="-314.86" y="-523.22" transform="rotate(-31.4455) scale(1,-1)" class="st27">Confirmation</text>		</g>
		<g id="shape982-496" transform="translate(379.734,1134.99) scale(1,-1)">
			<title>Sheet.982</title>
			<path d="M0 582.98 L20.94 595.28 L75.22 555.59 L93.93 573.13 L100.66 566.06" class="st28"/>
		</g>
		<g id="shape983-499" transform="translate(258.997,1121.5) rotate(21.8737) scale(1,-1)">
			<title>Sheet.983</title>
			<path d="M0 595.28 L58.13 595.28" class="st28"/>
		</g>
		<g id="shape1019-502" transform="translate(672.618,-326.078) rotate(20.6431)">
			<title>Sheet.1019</title>
			<desc>Alert</desc>
			<path d="M0 595.28 L39.53 595.28" class="st22"/>
			<rect x="-170.852" y="566.427" width="19.8929" height="12.0001" transform="rotate(-20.6431)" class="st23"/>
			<text x="-170.85" y="575.43" transform="rotate(-20.6431)" class="st24">Alert</text>		</g>
	</g>
</svg>
